<svg xmlns="http://www.w3.org/2000/svg" width="60" height="38" viewBox="0 0 60 38">
  <defs>
    <style>
      .cls-1 {
        fill: #999;
        fill-rule: evenodd;
      }
    </style>
  </defs>
  <path id="Back" class="cls-1" d="M5,0H55a5,5,0,0,1,5,5V33a5,5,0,0,1-5,5H5a5,5,0,0,1-5-5V5A5,5,0,0,1,5,0ZM43.543,16.3H42.289l-2-3.071-0.706.687V16.3H38.567V8.009h1.019v4.722l2.409-2.441h1.316l-2.292,2.233Zm-9.1-.707a1.423,1.423,0,0,0,1-.366,1.8,1.8,0,0,0,.51-1.127l1,0.139a2.579,2.579,0,0,1-.838,1.608,2.452,2.452,0,0,1-1.658.581,2.571,2.571,0,0,1-1.978-.8,3.257,3.257,0,0,1-.749-2.305,4.184,4.184,0,0,1,.322-1.7,2.237,2.237,0,0,1,.981-1.091,2.907,2.907,0,0,1,1.432-.364,2.48,2.48,0,0,1,1.6.494,2.265,2.265,0,0,1,.8,1.4l-0.985.15a1.639,1.639,0,0,0-.5-0.911A1.3,1.3,0,0,0,34.5,11a1.586,1.586,0,0,0-1.253.55,2.61,2.61,0,0,0-.481,1.742,2.706,2.706,0,0,0,.463,1.757A1.518,1.518,0,0,0,34.441,15.593Zm-5.676-.046a3.82,3.82,0,0,1-1.093.682,3.147,3.147,0,0,1-1.125.2,2.188,2.188,0,0,1-1.523-.483,1.585,1.585,0,0,1-.532-1.232,1.659,1.659,0,0,1,.727-1.386,2.507,2.507,0,0,1,.733-0.335,7.994,7.994,0,0,1,.907-0.152,9.312,9.312,0,0,0,1.818-.349c0-.139.006-0.228,0.006-0.264a1.117,1.117,0,0,0-.29-0.874,1.713,1.713,0,0,0-1.161-.344,1.811,1.811,0,0,0-1.064.252,1.538,1.538,0,0,0-.507.894l-1-.139a2.469,2.469,0,0,1,.448-1.034,1.977,1.977,0,0,1,.9-0.606,4.033,4.033,0,0,1,1.367-.212,3.613,3.613,0,0,1,1.254.182,1.645,1.645,0,0,1,.707.455,1.622,1.622,0,0,1,.319.695,5.976,5.976,0,0,1,.049.936v1.351a14.562,14.562,0,0,0,.065,1.793,2.3,2.3,0,0,0,.249.726H28.962A2.276,2.276,0,0,1,28.765,15.547Zm-1.749-1.875a3.8,3.8,0,0,0-.891.2,0.891,0.891,0,0,0-.4.328,0.866,0.866,0,0,0-.143.482,0.857,0.857,0,0,0,.309.674,1.341,1.341,0,0,0,.9.27,2.1,2.1,0,0,0,1.048-.257,1.575,1.575,0,0,0,.673-0.7,2.422,2.422,0,0,0,.164-1.014l0.006-.37A7.475,7.475,0,0,1,27.016,13.672Zm-5.156,2.08a2.583,2.583,0,0,1-.908.409,5.531,5.531,0,0,1-1.339.139H16.449V8.009h3.111a3.863,3.863,0,0,1,1.525.25,1.955,1.955,0,0,1,.9.776,2.027,2.027,0,0,1,.326,1.094,1.889,1.889,0,0,1-.287,1,2.049,2.049,0,0,1-.869.759,2.153,2.153,0,0,1,1.156.753,2,2,0,0,1,.406,1.254,2.419,2.419,0,0,1-.248,1.084A2.1,2.1,0,0,1,21.86,15.752Zm-0.628-5.494a1.324,1.324,0,0,0-.2-0.728A1,1,0,0,0,20.468,9.1a4.759,4.759,0,0,0-1.26-.116H17.55v2.513h1.793a4.026,4.026,0,0,0,1.046-.1,1.162,1.162,0,0,0,.631-0.415A1.2,1.2,0,0,0,21.232,10.258Zm0.108,2.83a1.249,1.249,0,0,0-.659-0.482,4.086,4.086,0,0,0-1.213-.139H17.55v2.86h2.065a4.712,4.712,0,0,0,.749-0.04A1.764,1.764,0,0,0,21,15.061a1.2,1.2,0,0,0,.419-0.463,1.447,1.447,0,0,0,.163-0.7A1.37,1.37,0,0,0,21.34,13.088ZM34,30H25V21h9v9Z"/>
</svg>
