<svg xmlns="http://www.w3.org/2000/svg" width="60" height="38" viewBox="0 0 60 38">
  <defs>
    <style>
      .cls-1 {
        fill: #999;
        fill-rule: evenodd;
      }
    </style>
  </defs>
  <path id="Help" class="cls-1" d="M5.193,0H55a5,5,0,0,1,5,5V33a5,5,0,0,1-5,5H5a5,5,0,0,1-5-5V5A5.168,5.168,0,0,1,5.193,0ZM45.882,19.257A4.369,4.369,0,0,1,43,20l-1.547.015v4L40,24V14l2.977,0.008q4.015,0,4.015,2.913A2.726,2.726,0,0,1,45.882,19.257ZM45.007,15.5A3.256,3.256,0,0,0,43,15l-1.547.015v4L43,19a2.936,2.936,0,0,0,1.962-.424,1.79,1.79,0,0,0,.74-1.6A1.68,1.68,0,0,0,45.007,15.5ZM32,14h1.5v8.576H38V24H32V14Zm-8,0h6v1.453H25.468V18H30v1.483H25.468v3.093H30V24H24V14Zm-4,5.5H14.5V24l-1.5.006v-10L14.5,14v4H20V14h1.483V24H20V19.5Z"/>
</svg>
